<?xml version="1.0" encoding="UTF-8"?><svg id="b" xmlns="http://www.w3.org/2000/svg" xmlns:xlink="http://www.w3.org/1999/xlink" viewBox="0 0 48 48"><defs><style>.e{clip-path:url(#d);}.f{fill:#bc955c;}.g{fill:#ddc8a2;}.h{fill:none;}</style><clipPath id="d"><rect class="h" width="48" height="48"/></clipPath></defs><g id="c"><g><path class="f" d="m40.5,21c1.2-.2,2.2-1,2.7-2.2.2-.6,0-1.1-.5-1.5-.5-.3-1.1-.3-1.6,0-.2.2-.4.4-.6.6-.5.8-.7,1.7-.6,2.6,0,.2.3.4.5.3Z"/><path class="f" d="m41,24c0,.2,0,.4.2.5,1.1.5,2.5.3,3.4-.5h0c.5-.4.6-1,.4-1.5-.2-.5-.8-.8-1.4-.8-.3,0-.6.1-.8.2-.9.4-1.5,1.1-1.9,1.9h0Z"/><g class="e"><path class="g" d="m62.7,45.5h-31.9c-.7,0-1.3.6-1.3,1.3s.6,1.3,1.3,1.3h31.9c.7,0,1.3-.6,1.3-1.3s-.6-1.3-1.3-1.3h0Z"/><path class="g" d="m23.8,46.7c0,.7-.6,1.3-1.3,1.3h-6c-.7,0-1.3-.6-1.3-1.3s.6-1.3,1.3-1.3h6c.7,0,1.3.6,1.3,1.3Z"/><path class="g" d="m8.2,45.5H-13.7c-.7,0-1.3.6-1.3,1.3s.6,1.3,1.3,1.3H8.2c.7,0,1.3-.6,1.3-1.3s-.6-1.3-1.3-1.3Z"/><path class="f" d="m10,27.9c.3,0,.5-.3.5-.6-.2-1.8-1.3-3.3-2.9-4-1.7-.8-3.3,1.2-2.2,2.7,1.1,1.4,2.8,2.2,4.6,1.9Z"/><path class="g" d="m59,38.4h-12.1c-.2,0-.3-.2-.3-.4.4-3.5-1.9-6.8-5.2-7.2-.1,0-.3-.1-.3-.3,0-2.5-2-4.4-4.3-4.3-.2,0-.3-.1-.3-.3V9c0-3.3-2.5-5.9-5.5-5.9h-15.5c-.1,0-.3-.1-.3-.3-.3-1.6-1.6-2.8-3.1-2.8h-6.5c-1.6,0-2.9,1.2-3.1,2.8,0,.2-.1.3-.3.3h-12.5c-1.5,0-2.7,1.3-2.7,2.9v5.6c0,1.6,1.2,2.9,2.7,2.9H2.2c.1,0,.3.1.3.3.3,1.6,1.6,2.8,3.1,2.8h6.5c1.6,0,2.9-1.2,3.1-2.8,0-.2.1-.3.3-.3h2.6c.5,0,1,.5,1,1v10.4c0,.2-.1.3-.3.3-2.3-.2-4.3,1.8-4.3,4.3,0,.2-.1.3-.3.3-3.3.4-5.6,3.7-5.2,7.2,0,.2-.1.4-.3.4H-11.8c-.7,0-1.2.6-1.2,1.3s.5,1.3,1.2,1.3H10.7c.9,0,1.5-1,1-1.9-1.4-2.9,1-6.4,4-5.6,1,.3,1.8-.9,1.3-1.9-.2-.3-.2-.6-.2-.9,0-1.3,1.1-2,2-1.8.1,0,.2.2.2.3v6.2c0,.7.5,1.3,1.2,1.3s1.2-.6,1.2-1.3V15.5c0-2-1.5-3.6-3.3-3.6h-2.5c-.2,0-.3-.1-.3-.3v-5.7c0-.2.1-.3.3-.3h15.5c1.7,0,3.1,1.5,3.1,3.4v26.3c0,.7.5,1.3,1.2,1.3s1.2-.6,1.2-1.3v-6.2c0-.3.3-.3.6-.3,1.3,0,2.1,1.6,1.4,2.8-.5,1,.3,2.2,1.3,1.9,3-.8,5.5,2.7,4,5.6-.4.8.1,1.9,1,1.9h14.1c.7,0,1.2-.6,1.2-1.3,0-.7-.5-1.3-1.2-1.3Z"/><path class="g" d="m29.5,35.3V11.9c0-2.4-2-4.4-4.4-4.4h-5c-.7,0-1.3.6-1.3,1.3s.6,1.3,1.3,1.3h5c1,0,1.9.8,1.9,1.9v23.4c0,.7.6,1.3,1.3,1.3s1.3-.6,1.3-1.3Z"/></g></g></g></svg>