<?xml version="1.0" encoding="UTF-8"?><svg id="b" xmlns="http://www.w3.org/2000/svg" viewBox="0 0 48 48"><defs><style>.d{fill:#ddc8a2;}.d,.e{fill-rule:evenodd;}.e{fill:#bc955c;}</style></defs><g id="c"><path class="d" d="m33.1,23.6c0,5-4,9-9,9s-9-4-9-9,4-9,9-9,9,4,9,9Zm-8.6-6.9c-.2-.2-.5-.2-.7,0-.9.9-1.7,1.9-2.3,2.9-1,1.6-1.8,3.7-1.9,5.6,0,2,.4,3.7,2.1,4.8,1.3.8,3.6.8,4.8,0,1.7-1.1,2.2-2.8,2.1-4.8,0-1.9-.9-4-1.9-5.6-.6-1.1-1.4-2.1-2.3-2.9h0ZM7,36.8c-1.2,0-2.4-.7-2.8-1.8v-.3c0,0,.2,0,.2,0,1.2,0,2.4.7,2.8,1.8v.3c0,0-.2,0-.2,0Zm1.6-.3c.4-1.1,1.6-1.9,2.8-1.8h.3s0,.3,0,.3c-.4,1.1-1.6,1.9-2.8,1.8h-.3s0-.3,0-.3Zm28.2-1.8c1.2,0,2.4.7,2.8,1.8v.3c0,0-.2,0-.2,0-1.2,0-2.4-.7-2.8-1.8v-.3c0,0,.2,0,.2,0Zm4.2,1.8c.4-1.1,1.6-1.9,2.8-1.8h.3s0,.3,0,.3c-.4,1.1-1.6,1.9-2.8,1.8h-.3s0-.3,0-.3ZM10.5,6.7c-.5.3-1.1.5-1.7.5h-.3s0-.3,0-.3c.4-1.1,1.6-1.9,2.8-1.8h.3s0,.3,0,.3c-.2.6-.6,1-1.1,1.4Zm-3.4.5c-1.2,0-2.4-.7-2.8-1.8v-.3c0,0,.2,0,.2,0,1.2,0,2.4.7,2.8,1.8v.3c0,0-.2,0-.2,0Zm35-1.6c.5-.3,1.1-.5,1.7-.5h.3s0,.3,0,.3c-.4,1.1-1.6,1.9-2.8,1.8h-.3s0-.3,0-.3c.2-.6.6-1,1.1-1.4h0Zm-2.7,1.6c-1.2,0-2.4-.7-2.8-1.8v-.3c0,0,.2,0,.2,0,1.2,0,2.4.7,2.8,1.8v.3c0,0-.2,0-.2,0Z"/><path class="e" d="m46.8,25.4c-2.1,1.8-4.1,1.8-6.1,0,0,0,0,0,0,0-2.1-1.8-4.3-2.1-6.4-1.1,0-1,0-2-.2-2.9,1.8-1.4,3.6-1.3,5.6.4,1.3,1.1,2.6,1.7,4,1.7s2.7-.6,4-1.7c.3-.3.3-.7,0-1-.3-.3-.7-.3-1,0-2.1,1.8-4.1,1.8-6.1,0,0,0,0,0,0,0-2.4-2-4.8-2.2-7-.7-1.3-3.3-4.2-5.8-7.8-6.4-1.1-1.7-.8-3.4.7-5.2,2.3-2.6,2.3-5.4,0-8-.3-.3-.7-.3-1,0-.3.3-.3.7,0,1,1.8,2.1,1.8,4.1,0,6.1,0,0,0,0,0,0-2,2.4-1.9,4.5-1.3,6-1,0-2,.1-2.9.4-1.3-1.8-1.1-3.5.5-5.5,2.3-2.6,2.3-5.4,0-8-.3-.3-.7-.3-1,0-.3.3-.3.7,0,1,1.8,2.1,1.8,4.1,0,6.1,0,0,0,0,0,0-1.9,2.3-2.2,4.7-.8,6.9-3,1.4-5.3,4.2-5.8,7.6-1.9,1.4-3.7,1.3-5.7-.4-2.6-2.3-5.4-2.3-8,0-.3.3-.3.7,0,1,.3.3.7.3,1,0,2.1-1.8,4.1-1.8,6.1,0,.2,0,1.8,1.7,4.1,1.7s1.6-.2,2.4-.6c0,1,.1,1.9.4,2.8-1.9,1.6-3.8,1.6-5.9-.2-2.6-2.3-5.4-2.3-8,0-.3.3-.3.7,0,1,.3.3.7.3,1,0,2.1-1.8,4.1-1.8,6.1,0,.2,0,1.8,1.7,4.1,1.7s2.3-.4,3.3-1.2c1.2,2.7,3.7,4.8,6.6,5.6,0,0,0,0,.1.1,1.8,2,1.8,3.9,0,6.1-2.3,2.6-2.3,5.4,0,8,.3.3.7.3,1,0,.3-.3.3-.7,0-1-1.8-2.1-1.8-4.1,0-6.1,0,0,0,0,0,0,1.9-2.3,2.2-4.7.9-6.8.9,0,1.9,0,2.8-.2,1.8,2,1.8,3.9,0,6.1-2.3,2.6-2.3,5.4,0,8,.3.3.7.3,1,0,.3-.3.3-.7,0-1-1.8-2.1-1.8-4.1,0-6.1,0,0,0,0,0,0,2.1-2.5,2.2-5.1.4-7.5,3-1.2,5.4-3.8,6.2-7,1.9-1.5,3.7-1.4,5.7.3,1.3,1.1,2.6,1.7,4,1.7s2.7-.6,4-1.7c.3-.3.3-.7,0-1-.3-.3-.7-.3-1,0h0Zm-22.7,7c-4.8,0-8.8-3.9-8.8-8.8s3.9-8.8,8.8-8.8,8.8,3.9,8.8,8.8c0,4.9-3.9,8.8-8.8,8.8Zm-11.6,1.3c.3.1.5.4.5.8-.2,2.2-2.2,3.8-4.4,3.7v3.7h3.4c.4,0,.7.3.7.7s-.3.7-.7.7H3.8c-.4,0-.7-.3-.7-.7s.3-.7.7-.7h3.4v-3.7c-2.2.1-4.1-1.4-4.4-3.7,0-.3.2-.7.5-.8,1.7-.5,3.6.1,4.6,1.6,1-1.4,2.9-2.1,4.6-1.6Zm-7,2.5c-.5-.3-.8-.8-1-1.3,1.1,0,2.2.6,2.6,1.7-.6,0-1.1-.1-1.6-.4h0Zm4.9,0c-.5.3-1,.5-1.6.4.4-1.1,1.5-1.8,2.6-1.7-.2.5-.6,1-1,1.3h0ZM37,7.8c-1-.7-1.7-1.8-1.8-3,0-.3.2-.7.5-.8,1.7-.5,3.6.1,4.6,1.6,1-1.5,2.9-2.1,4.6-1.6.3.1.5.4.5.8-.2,2.2-2.2,3.8-4.4,3.7v3.7h3.4c.4,0,.7.3.7.7s-.3.7-.7.7h-8.2c-.4,0-.7-.3-.7-.7s.3-.7.7-.7h3.4v-3.7c-.9,0-1.8-.2-2.5-.7Zm5.2-2.1c.5-.3,1-.5,1.6-.4-.4,1.1-1.5,1.8-2.6,1.7.2-.5.6-1,1-1.3h0Zm-3.8,0c.5.3.8.8,1,1.3-1.1,0-2.2-.6-2.6-1.7.6,0,1.1.1,1.6.4Zm6.5,27.9c.3.1.5.4.5.8-.2,2.2-2.2,3.8-4.4,3.7v3.7h3.4c.4,0,.7.3.7.7s-.3.7-.7.7h-8.2c-.4,0-.7-.3-.7-.7s.3-.7.7-.7h3.4v-3.7c-2.2.1-4.1-1.5-4.4-3.7,0-.3.2-.7.5-.8,1.7-.5,3.6.1,4.6,1.6,1-1.4,2.9-2.1,4.6-1.6h0Zm-7,2.5c-.5-.3-.8-.8-1-1.3,1.1,0,2.2.6,2.6,1.7-.6,0-1.1-.1-1.6-.4h0Zm4.9,0c-.5.3-1,.5-1.6.4.4-1.1,1.5-1.8,2.6-1.7-.2.5-.6,1-1,1.3h0ZM4.6,7.8c-1-.7-1.7-1.8-1.8-3,0-.3.2-.7.5-.8,1.7-.5,3.6.1,4.6,1.6,1-1.5,2.9-2.1,4.6-1.6.3.1.5.4.5.8-.2,2.2-2.2,3.8-4.4,3.7v3.7h3.4c.4,0,.7.3.7.7s-.3.7-.7.7H3.8c-.4,0-.7-.3-.7-.7s.3-.7.7-.7h3.4v-3.7c-.9,0-1.8-.2-2.5-.7Zm5.2-2.1c.5-.3,1-.5,1.6-.4-.4,1.1-1.5,1.8-2.6,1.7.2-.5.6-1,1-1.3Zm-3.8,0c.5.3.8.8,1,1.3-1.1,0-2.2-.6-2.6-1.7.6,0,1.1.1,1.6.4Zm21,13.8c.7,1.1,1.8,3.3,1.9,5.7,0,2.4-.6,3.9-2.2,5-1.3.9-3.7.9-5.1,0-1.6-1.1-2.3-2.6-2.2-5,0-2.4,1.2-4.6,1.9-5.7.6-1.1,1.4-2.1,2.4-3,.3-.3.7-.3,1,0,.9.9,1.7,1.9,2.4,3h0Zm-1.1,9.4c-.9.6-2.6.6-3.5,0-1.2-.8-1.6-1.8-1.6-3.7,0-2,1.1-4,1.7-5,.5-.8,1-1.5,1.6-2.2.6.7,1.2,1.4,1.6,2.2.6,1,1.6,2.9,1.7,5,0,1.9-.4,2.9-1.6,3.7Z"/></g></svg>